<?xml version="1.0" encoding="utf-8"?>
<!-- Generator: Adobe Illustrator 25.1.0, SVG Export Plug-In . SVG Version: 6.00 Build 0)  -->
<svg version="1.1" id="Layer_1" xmlns="http://www.w3.org/2000/svg" xmlns:xlink="http://www.w3.org/1999/xlink" x="0px" y="0px"
	 viewBox="0 0 70 87.5" style="enable-background:new 0 0 70 87.5;" xml:space="preserve">
<style type="text/css">
	.st0{fill:#264653;}
	.st1{fill:#FFFFFF;}
</style>
<g>
	<path class="st0" d="M58.5,31.9C58.5,31.9,58.5,31.9,58.5,31.9l-22.2,0c0,0,0,0,0,0c0,0,0,0,0,0H6.5l3.9,31.3h31
		c0.6,0,1.1,0.5,1.1,1.1c0,0.6-0.5,1.1-1.1,1.1H10.9c0.6,1.6,2.1,2.6,3.9,2.6h39.6c2.1,0,3.9-1.6,4.2-3.7l4.1-32.3L58.5,31.9
		C58.5,31.9,58.5,31.9,58.5,31.9z M53.8,65.4h-7.9c-0.6,0-1.1-0.5-1.1-1.1c0-0.6,0.5-1.1,1.1-1.1h7.9c0.6,0,1.1,0.5,1.1,1.1
		C54.8,64.9,54.4,65.4,53.8,65.4z"/>
	<path class="st0" d="M37.9,22.1c0.1-1.3-0.7-2.5-2-3l-1-0.4c-0.9-0.4-2-0.3-2.9,0.2c-0.7,0.4-1.3,1-1.6,1.7
		c0.6,0.1,1.4,0.1,2.2-0.4c0.4-0.2,1-0.1,1.3,0.2c0.3,0.4,0.4,0.9,0.1,1.3c-0.1,0.1-0.2,0.3-0.3,0.5c0.2-0.2,0.5-0.4,0.7-0.7
		c0.2-0.2,0.5-0.4,0.8-0.4c0,0,0.1,0,0.1,0c0.4,0,0.7,0.3,0.8,0.6c0,0,0.6,1.1,1.4,1.3C37.7,22.8,37.8,22.4,37.9,22.1z"/>
	<path class="st0" d="M11.4,29.8h9.2c0.1-0.2,0.1-0.3,0.2-0.5c0.2-0.4,0.4-0.7,0.7-1.1c-1.1-2.7-1.5-6.1-1.2-10.2
		c0-0.1-0.1-0.2-0.1-0.3c0-0.1-0.1-0.3-0.1-0.5c-0.5-0.1-1-0.1-1.5,0.1c-1,0.2-1.9,0.9-2.5,1.8c-0.1-0.9,0.1-2.3,1.5-3.3
		c0.5-0.4,0.6-1,0.2-1.5c-0.4-0.5-1-0.6-1.5-0.2c-2,1.5-2.5,3.6-2.3,5.2c-0.8-0.4-1.7-0.5-2.6-0.3c-1.1,0.2-2,0.9-2.6,1.8
		c-0.6,0.9-0.8,2-0.5,3.1C8.7,25.2,10,27.8,11.4,29.8z"/>
	<path class="st0" d="M29.6,22.5L29.6,22.5c-1.4,1.9-3.2,3.9-5.5,6c-0.4,0.4-0.7,0.8-1,1.2h12.4c0.5-1.5,0.9-3.1,1.3-4.7
		c-0.7-0.2-1.3-0.7-1.8-1.2c-1.2,0.9-2.3,1.2-2.3,1.3c-0.5,0.1-1.1-0.1-1.3-0.6c-0.2-0.6-0.2-1.2-0.1-1.8
		C30.6,22.7,30.1,22.6,29.6,22.5z"/>
	<path class="st0" d="M22.5,17.7c0,0.1,0,0.2,0,0.3c-0.2,3.3,0,6.1,0.7,8.4c1.9-1.8,3.4-3.6,4.6-5.2l0.1-0.1
		c0.1-0.1,0.1-0.2,0.2-0.3c0-0.1,0-0.3,0.1-0.5c0.4-1.5,1.4-2.8,2.8-3.5c1.2-0.6,2.7-0.8,4-0.5c0.2-1,0.8-2.2,2.5-3.1
		c0.5-0.3,1.2-0.1,1.4,0.4c0.3,0.5,0.1,1.2-0.4,1.4c-1.2,0.6-1.4,1.5-1.4,2c2,0.9,3.2,2.9,2.9,5.1c-0.1,0.8-0.4,1.5-0.8,2.2
		c-0.4,1.9-0.9,3.7-1.4,5.3h2.2c0.6-3.6,1.7-7.4,3.3-11.2c0.5-1.1,1-2.2,1.5-3.2c-0.5,0.1-1.6,0.1-2.1-1c-0.2-0.3-0.2-0.7-0.2-1
		c-0.1-1.1-0.9-3.6-1.3-4c0,0-0.2,0-0.4,0c-0.5,0-1.5-0.1-2-1.1c-0.2-0.4-0.2-0.8-0.3-1.1c0-0.2,0-0.3-0.1-0.4c0,0-0.1-0.1-0.2-0.2
		C38,6.2,37.8,6,37.6,5.8c-0.8-0.8-3-3.4-3.9-3.6c-0.9,0.3-3.1,2.7-3.9,3.6c-0.2,0.3-0.4,0.5-0.6,0.7C29.1,6.4,29,6.5,29,6.6
		c0,0.1-0.1,0.3-0.1,0.5c0,0.3-0.1,0.7-0.3,1.1c-0.5,1-1.5,1.1-2,1.1c-0.1,0-0.4,0-0.4,0.1c-0.4,0.4-1.2,2.9-1.2,4
		c0,0.3-0.1,0.7-0.2,1c-0.6,1.2-1.8,1.1-2.2,1c-0.1,0-0.2,0-0.3,0c-0.1,0.1-0.1,0.4-0.1,0.7c0,0.4,0.1,0.7,0.3,1.2
		C22.4,17.3,22.4,17.5,22.5,17.7z"/>
	<path class="st0" d="M57.8,29.8c0.7-1.4,1.4-2.8,2-4.3c4.9-11.9,4.5-21.8,1-23.3C57.8,0.9,51.8,6,47,15.3c0,0,0,0,0,0
		c-0.7,1.3-1.3,2.6-1.9,4.1c-1.5,3.5-2.5,7.1-3.1,10.4H57.8z M54.5,9.6C54.7,9.3,55,9.1,55.4,9c0.6-0.1,1.7,0,4.4,1.8
		c0.5,0.3,0.6,1,0.3,1.5c-0.2,0.3-0.5,0.5-0.9,0.5c-0.2,0-0.4-0.1-0.6-0.2c-1.7-1.1-2.4-1.4-2.7-1.4c-0.3,0.1-0.7,0.1-1-0.1
		C54.3,10.7,54.2,10.1,54.5,9.6z M50.5,17.2c0.2-0.3,0.5-0.5,0.9-0.6c0.6-0.1,1.7,0,4.4,1.8c0.5,0.3,0.6,1,0.3,1.5
		c-0.2,0.3-0.5,0.5-0.9,0.5c-0.2,0-0.4-0.1-0.6-0.2c-1.7-1.1-2.4-1.4-2.7-1.4c-0.3,0.1-0.7,0.1-1-0.1C50.4,18.4,50.2,17.7,50.5,17.2
		z M48.6,26.1c0.2-0.3,0.5-0.5,0.9-0.6c0.6-0.1,1.7,0,4.4,1.8c0.5,0.3,0.6,1,0.3,1.5c-0.2,0.3-0.5,0.5-0.9,0.5
		c-0.2,0-0.4-0.1-0.6-0.2c-1.7-1.1-2.4-1.4-2.7-1.4c-0.3,0.1-0.7,0.1-1-0.1C48.5,27.2,48.3,26.6,48.6,26.1z"/>
</g>
<g id="g2529" transform="translate(-24.7 -77.8657)">
	<g id="g2498">
		<g id="g2496">
			<g id="g2494">
				<path id="path2492" class="st1" d="M51.1,127.4C51,127.4,51,127.4,51.1,127.4l0.3-0.5c0,0,0.1-0.1,0.2-0.1h5.6
					c0.1,0,0.1,0,0,0.1l-0.3,0.4c0,0-0.1,0.1-0.2,0.1L51.1,127.4z"/>
			</g>
		</g>
	</g>
	<g id="g2506">
		<g id="g2504">
			<g id="g2502">
				<path id="path2500" class="st1" d="M48.7,128.8C48.6,128.8,48.6,128.8,48.7,128.8l0.3-0.5c0,0,0.1-0.1,0.2-0.1h7.2
					c0.1,0,0.1,0,0.1,0.1l-0.1,0.4c0,0.1-0.1,0.1-0.1,0.1L48.7,128.8z"/>
			</g>
		</g>
	</g>
	<g id="g2514">
		<g id="g2512">
			<g id="g2510">
				<path id="path2508" class="st1" d="M52.5,130.3C52.5,130.3,52.4,130.3,52.5,130.3l0.2-0.5c0,0,0.1-0.1,0.2-0.1H56
					c0.1,0,0.1,0,0.1,0.1l0,0.4c0,0.1-0.1,0.1-0.1,0.1L52.5,130.3z"/>
			</g>
		</g>
	</g>
	<g id="g2527">
		<g id="CXHf1q_3_">
			<g id="g2524">
				<g id="g2518">
					<path id="path2516" class="st1" d="M68.9,127.1c-1,0.3-1.7,0.4-2.7,0.7c-0.2,0.1-0.3,0.1-0.5-0.2c-0.2-0.3-0.4-0.4-0.7-0.6
						c-1-0.5-2-0.3-2.9,0.2c-1.1,0.7-1.6,1.7-1.6,3c0,1.3,0.9,2.3,2.1,2.5c1.1,0.1,2-0.2,2.7-1c0.1-0.2,0.3-0.4,0.4-0.6h-3.1
						c-0.3,0-0.4-0.2-0.3-0.5c0.2-0.5,0.6-1.3,0.8-1.7c0-0.1,0.2-0.3,0.4-0.3h5.8c0,0.4,0,0.9-0.1,1.3c-0.2,1.1-0.6,2.2-1.3,3.1
						c-1.1,1.5-2.6,2.4-4.5,2.7c-1.5,0.2-3-0.1-4.3-1c-1.2-0.9-1.8-2.1-2-3.5c-0.2-1.7,0.3-3.3,1.3-4.6c1.1-1.5,2.6-2.4,4.4-2.7
						c1.5-0.3,2.9-0.1,4.2,0.8c0.8,0.6,1.4,1.3,1.8,2.2C69.2,127,69.1,127.1,68.9,127.1L68.9,127.1z"/>
				</g>
				<g id="g2522">
					<path id="path2520" class="st1" d="M74.2,135.8c-1.4,0-2.8-0.4-3.9-1.4c-0.9-0.8-1.5-1.8-1.7-3.1c-0.3-1.8,0.2-3.4,1.3-4.8
						c1.2-1.5,2.5-2.3,4.4-2.6c1.6-0.3,3.1-0.1,4.5,0.8c1.2,0.9,2,2,2.2,3.5c0.3,2.1-0.3,3.9-1.8,5.4c-1,1.1-2.3,1.7-3.8,2
						C75,135.8,74.6,135.8,74.2,135.8L74.2,135.8z M77.9,129.5c0-0.2,0-0.4,0-0.5c-0.3-1.6-1.7-2.5-3.2-2.1
						c-1.5,0.3-2.4,1.3-2.8,2.8c-0.3,1.2,0.3,2.5,1.5,3c0.9,0.4,1.7,0.3,2.6-0.1C77.2,131.8,77.8,130.8,77.9,129.5L77.9,129.5z"/>
				</g>
			</g>
		</g>
	</g>
</g>
</svg>
